<svg width="400" height="400" viewBox="0 0 400 400" fill="none" xmlns="http://www.w3.org/2000/svg">
<g clip-path="url(#clip0_94_37)">
<path d="M104.12 163.28V34.8998C104.12 30.1798 98.9401 27.3398 94.9201 29.8198C44.2401 61.1598 8.62005 114.54 1.38005 176.56C0.960055 180.14 3.74006 183.28 7.34005 183.28H84.1001C95.1601 183.28 104.12 174.32 104.12 163.26V163.28Z" fill="#171717"/>
<path d="M154.12 183.3H392.66C396.26 183.3 399.04 180.14 398.62 176.56C387.02 77.14 302.52 0 200 0C179.2 0 159.14 3.18 140.26 9.08C137.78 9.86 136.1 12.2 136.1 14.8V165.3C136.1 175.24 144.16 183.3 154.1 183.3H154.12Z" fill="#171717"/>
<path d="M296.12 233.3V364.98C296.12 369.7 301.32 372.56 305.34 370.06C356.3 338.44 391.98 284.56 398.82 222C399.2 218.44 396.42 215.32 392.84 215.32H314.12C304.18 215.32 296.12 223.38 296.12 233.32V233.3Z" fill="#171717"/>
<path d="M246.12 215.3H7.18009C3.60009 215.3 0.820086 218.42 1.20009 221.98C12.1401 322.1 96.9801 400.02 200 400.02C220.9 400.02 241.04 396.82 259.96 390.88C262.44 390.1 264.1 387.76 264.1 385.16V233.32C264.1 223.38 256.04 215.32 246.1 215.32L246.12 215.3Z" fill="#171717"/>
</g>
<defs>
<clipPath id="clip0_94_37">
<rect width="397.68" height="400" fill="white" transform="translate(1.16003)"/>
</clipPath>
</defs>
</svg>
